<svg id="Layer_1" data-name="Layer 1" xmlns="http://www.w3.org/2000/svg" viewBox="0 0 407.55 407.55"><defs><style>.cls-1{fill:#ff7e1d;}.cls-2{fill:#ea651b;fill-rule:evenodd;}</style></defs><circle class="cls-1" cx="203.78" cy="203.78" r="203.78"/><path class="cls-2" d="M48.25,303.16l-.46.29-.26.43-.09.52.1.48.25.45.39.31.54.13.34,0,.43-.06.89,0,.85.1.84.24.78.38.73.45.66.6.55.69.22.39.23.39.31.82.19.85,0,.88-.07.86-.21.84-.34.8-.47.75-.27.34-.17.23-.15.47v.46l.17.42.3.35.36.22.45.11.5-.08.24-.12.18-.13.17-.15.42-.53.68-1.11.49-1.19.32-1.24.09-1.27-.06-1.27-.27-1.27-.46-1.2-.34-.58-.33-.58-.81-1-1-.86-1.07-.7L53,303.44l-1.24-.34-1.28-.17-1.3,0-.65.12-.31.08Z"/><path class="cls-2" d="M38.31,285.86l-.46.29-.31.43-.12.51,0,.3.07.27.32.46.43.29.55.1.27-.06.44,0,.89,0,.86.1.83.24.79.38.73.45.65.6.55.69.23.39.22.39.32.82.18.85,0,.88-.08.84-.21.85-.33.81-.46.75-.27.34-.18.23-.15.45,0,.48.16.42.29.32.38.25.44.11.5-.08.24-.12.19-.13.16-.17.43-.51.67-1.11.5-1.19.31-1.24.1-1.27-.07-1.27-.28-1.26-.45-1.21-.33-.58-.34-.58-.84-1-.93-.86-1.07-.7-1.15-.55-1.23-.34-1.28-.17-1.3,0-.67.1-.27.06Z"/><path class="cls-2" d="M35.51,271.32l-.3.41-.13.49v.51l.2.45.43.37.29.11,2,.67L41.89,276l3.63,2,3.4,2.27,3.14,2.54,2.87,2.81,2.58,3.05,2.32,3.25,2,3.45,1.66,3.63,1.34,3.77,1,3.9.63,4,.25,4-.11,4.14-.52,4.15L65.66,325l0,.22,0,.4.25.52.59.44.59.07.38-.09.2-.09.23-.16.33-.45.07-.27.25-1.1.37-2.2.27-2.22.18-2.19.06-3.29-.28-4.33-.66-4.23-1.07-4.13-1.41-4-1.78-3.85-2.13-3.67-2.43-3.45-2.76-3.23-3-3L50.52,278l-3.61-2.41L44,274l-2-1-2-.86-2.1-.77-1.08-.36-.31-.08-.55.06Z"/></svg>